Coordinates
nRows=317
nColumns=2
inDegrees=yes
endheader
time	ankle_angle_r	
2.92723	  0.320441	
2.9605	  0.263109	
2.99376	  0.236179	
3.02702	  0.239874	
3.06029	  0.250449	
3.09355	  0.254636	
3.12682	  0.257072	
3.16008	  0.260737	
3.19334	  0.265247	
3.22661	  0.271981	
3.25987	  0.280337	
3.29314	  0.288120	
3.3264	  0.289087	
3.35966	  0.277693	
3.39293	  0.264187	
3.42619	  0.258704	
3.45946	  0.251199	
3.49272	  0.237406	
3.52598	  0.229687	
3.55925	  0.229535	
3.59251	  0.231103	
3.62578	  0.236803	
3.65904	  0.245240	
3.6923	  0.250834	
3.72557	  0.253102	
3.75883	  0.252663	
3.7921	  0.253226	
3.82536	  0.257794	
3.85862	  0.257733	
3.89189	  0.247629	
3.92515	  0.235819	
3.95842	  0.227950	
3.99168	  0.224571	
4.02494	  0.225655	
4.05821	  0.226874	
4.09147	  0.228953	
4.12474	  0.236669	
4.158	  0.245596	
4.19126	  0.250088	
4.22453	  0.248770	
4.25779	  0.239976	
4.29106	  0.228243	
4.32432	  0.221020	
4.35758	  0.218594	
4.39085	  0.219309	
4.42411	  0.221727	
4.45738	  0.224629	
4.49064	  0.231752	
4.5239	  0.241107	
4.55717	  0.242801	
4.59043	  0.236395	
4.6237	  0.227025	
4.65696	  0.216278	
4.69022	  0.206762	
4.72349	  0.197377	
4.75675	  0.187215	
4.79002	  0.183671	
4.82328	  0.188375	
4.85654	  0.195453	
4.88981	  0.203957	
4.92307	  0.211883	
4.95634	  0.216366	
4.9896	  0.221608	
5.02286	  0.226812	
5.05613	  0.224541	
5.08939	  0.216648	
5.12266	  0.208801	
5.15592	  0.201789	
5.18918	  0.197346	
5.22245	  0.195777	
5.25571	  0.196714	
5.28898	  0.200399	
5.32224	  0.198359	
5.3555	  0.184974	
5.38877	  0.169811	
5.42203	  0.160869	
5.4553	  0.159553	
5.48856	  0.166230	
5.52182	  0.174408	
5.55509	  0.178983	
5.58835	  0.182491	
5.62162	  0.184240	
5.65488	  0.184399	
5.68814	  0.187174	
5.72141	  0.189555	
5.75467	  0.188441	
5.78794	  0.186939	
5.8212	  0.181457	
5.85446	  0.168504	
5.88773	  0.157782	
5.92099	  0.156155	
5.95426	  0.157953	
5.98752	  0.158214	
6.02078	  0.156829	
6.05405	  0.156683	
6.08731	  0.160516	
6.12058	  0.162857	
6.15384	  0.160474	
6.1871	  0.160376	
6.22037	  0.162752	
6.25363	  0.159457	
6.2869	  0.147403	
6.32016	  0.130201	
6.35342	  0.120826	
6.38669	  0.132816	
6.41995	  0.156980	
6.45322	  0.172454	
6.48648	  0.176608	
6.51974	  0.177655	
6.55301	  0.178376	
6.58627	  0.179854	
6.61954	  0.179453	
6.6528	  0.172087	
6.68606	  0.161036	
6.71933	  0.151846	
6.75259	  0.147266	
6.78586	  0.152120	
6.81912	  0.163048	
6.85238	  0.169524	
6.88565	  0.170738	
6.91891	  0.168930	
6.95218	  0.164135	
6.98544	  0.164669	
7.0187	  0.175950	
7.05197	  0.189198	
7.08523	  0.194829	
7.1185	  0.188759	
7.15176	  0.174292	
7.18502	  0.164611	
7.21829	  0.167916	
7.25155	  0.182614	
7.28482	  0.205519	
7.31808	  0.226139	
7.35134	  0.231994	
7.38461	  0.223751	
7.41787	  0.208376	
7.45114	  0.193016	
7.4844	  0.185575	
7.51766	  0.185494	
7.55093	  0.188480	
7.58419	  0.194645	
7.61746	  0.199060	
7.65072	  0.194994	
7.68398	  0.185964	
7.71725	  0.181798	
7.75051	  0.189963	
7.78378	  0.207103	
7.81704	  0.219339	
7.8503	  0.219517	
7.88357	  0.213192	
7.91683	  0.207793	
7.9501	  0.209173	
7.98336	  0.219460	
8.01662	  0.234673	
8.04989	  0.251285	
8.08315	  0.266066	
8.11642	  0.274974	
8.14968	  0.280205	
8.18294	  0.283340	
8.21621	  0.278763	
8.24947	  0.266870	
8.28274	  0.254971	
8.316	  0.244531	
8.34926	  0.235307	
8.38253	  0.230033	
8.41579	  0.228687	
8.44906	  0.230838	
8.48232	  0.236623	
8.51558	  0.243193	
8.54885	  0.248417	
8.58211	  0.251232	
8.61538	  0.251762	
8.64864	  0.254345	
8.6819	  0.258640	
8.71517	  0.258813	
8.74843	  0.256599	
8.7817	  0.256577	
8.81496	  0.259952	
8.84822	  0.269724	
8.88149	  0.281369	
8.91475	  0.281499	
8.94802	  0.270457	
8.98128	  0.263366	
9.01454	  0.266703	
9.04781	  0.273781	
9.08107	  0.275443	
9.11434	  0.266740	
9.1476	  0.254340	
9.18086	  0.249854	
9.21413	  0.252924	
9.24739	  0.257162	
9.28066	  0.261029	
9.31392	  0.262287	
9.34718	  0.259700	
9.38045	  0.256594	
9.41371	  0.253179	
9.44698	  0.249820	
9.48024	  0.249163	
9.5135	  0.245655	
9.54677	  0.235620	
9.58003	  0.228860	
9.6133	  0.232459	
9.64656	  0.242197	
9.67982	  0.250849	
9.71309	  0.255168	
9.74635	  0.261424	
9.77962	  0.275007	
9.81288	  0.286099	
9.84614	  0.284795	
9.87941	  0.275687	
9.91267	  0.265599	
9.94594	  0.258969	
9.9792	  0.261281	
10.0125	  0.270028	
10.0457	  0.276071	
10.079	  0.275266	
10.1123	  0.268212	
10.1455	  0.258007	
10.1788	  0.248379	
10.212	  0.240243	
10.2453	  0.235697	
10.2786	  0.235624	
10.3118	  0.234053	
10.3451	  0.229159	
10.3784	  0.227234	
10.4116	  0.231751	
10.4449	  0.243669	
10.4782	  0.261061	
10.5114	  0.273802	
10.5447	  0.275877	
10.578	  0.272704	
10.6112	  0.267367	
10.6445	  0.258656	
10.6777	  0.249043	
10.711	  0.241384	
10.7443	  0.235232	
10.7775	  0.227243	
10.8108	  0.217585	
10.8441	  0.216492	
10.8773	  0.228633	
10.9106	  0.241973	
10.9439	  0.246970	
10.9771	  0.244223	
11.0104	  0.234475	
11.0436	  0.222411	
11.0769	  0.216300	
11.1102	  0.216271	
11.1434	  0.214828	
11.1767	  0.207474	
11.21	  0.201669	
11.2432	  0.208894	
11.2765	  0.223393	
11.3098	  0.227422	
11.343	  0.215820	
11.3763	  0.198265	
11.4096	  0.185682	
11.4428	  0.182125	
11.4761	  0.184884	
11.5093	  0.189288	
11.5426	  0.191084	
11.5759	  0.185843	
11.6091	  0.174208	
11.6424	  0.165185	
11.6757	  0.166194	
11.7089	  0.176311	
11.7422	  0.188445	
11.7755	  0.192554	
11.8087	  0.185629	
11.842	  0.176683	
11.8752	  0.175358	
11.9085	  0.183269	
11.9418	  0.193305	
11.975	  0.194867	
12.0083	  0.190704	
12.0416	  0.193743	
12.0748	  0.202042	
12.1081	  0.204636	
12.1414	  0.199925	
12.1746	  0.189744	
12.2079	  0.177808	
12.2412	  0.170821	
12.2744	  0.167796	
12.3077	  0.164398	
12.3409	  0.162772	
12.3742	  0.163060	
12.4075	  0.161312	
12.4407	  0.158288	
12.474	  0.157069	
12.5073	  0.160851	
12.5405	  0.170816	
12.5738	  0.177610	
12.6071	  0.172712	
12.6403	  0.162700	
12.6736	  0.156560	
12.7068	  0.157734	
12.7401	  0.166613	
12.7734	  0.175295	
12.8066	  0.178008	
12.8399	  0.183199	
12.8732	  0.193284	
12.9064	  0.195930	
12.9397	  0.188308	
12.973	  0.179696	
13.0062	  0.173367	
13.0395	  0.167067	
13.0728	  0.158840	
13.106	  0.149522	
13.1393	  0.144547	
13.1725	  0.144680	
13.2058	  0.145731	
13.2391	  0.147799	
13.2723	  0.150461	
13.3056	  0.154374	
13.3389	  0.164126	
13.3721	  0.172198	
13.4054	  0.163109	
13.4387	  0.137302	
